# xmcd
# 
# Track frame offsets:
#     150
#     13238
#     30443
#     44141
#     69329
#     82544
#     105700
#     117321
#     136350
#     164843
#     187943
#     210835
#     229896
#     253263
#     273064
# 
# Disc length: 3804
# 
# Revision: 1
# Processed by: cddbd v1.5.2PL0 Copyright (c) Steve Scherf et al.
# Submitted via: BonkEnc v1.0
# 
DISCID=c80eda0f
DTITLE=Gabriel and Rafael - Uma moda no barzinho
DYEAR=2006
DGENRE=Country
TTITLE0=Pra enganar a saudade
TTITLE1=Separados - Hoje não é nosso dia
TTITLE2=Quem sabe amanhã
TTITLE3=Malícia de Mulher - Coração Apaixonado - Cuida de 
TTITLE4=Os tombos que a vida me deu
TTITLE5=Amei Amei - Amantes e Amigos
TTITLE6=Depois da bebedeira
TTITLE7=Já posso viver sem você
TTITLE8=Sinônimo - Evidências
TTITLE9=Saudade - Não desligue o rádio
TTITLE10=Vestido de seda - Passe livre - Não fale nessa mul
TTITLE11=Esqueci - Camisa manchada
TTITLE12=Pode ser pra valer - Aos trancos e barrancos
TTITLE13=Biquini bordô
TTITLE14=Eu a viola e ela
EXTD=
EXTT0=
EXTT1=
EXTT2=
EXTT3=
EXTT4=
EXTT5=
EXTT6=
EXTT7=
EXTT8=
EXTT9=
EXTT10=
EXTT11=
EXTT12=
EXTT13=
EXTT14=
PLAYORDER=
